<svg width="305" height="42" viewBox="0 0 305 42" fill="none" xmlns="http://www.w3.org/2000/svg">
<path d="M62.6667 33.7983V31.2678C64.1126 33.6898 66.8599 34.2321 68.4144 34.2321C73.0414 34.2321 76.9817 30.2918 76.9817 24.508C76.9817 18.9772 73.4391 14.7477 68.2336 14.7477C66.4623 14.7477 64.438 15.3623 63.1727 17.2782V7.95172H56.8828V33.7983H62.6667ZM63.0281 24.4357C63.0281 21.833 64.691 20.2424 66.8961 20.2424C68.9566 20.2424 70.6556 21.833 70.6556 24.4357C70.6556 27.0384 68.9566 28.7374 66.8961 28.7374C64.691 28.7374 63.0281 27.0746 63.0281 24.4357Z" fill="#170F49"/>
<path d="M92.7989 14.8923C92.5097 14.7839 92.112 14.7477 91.6421 14.7477C89.1839 14.7477 87.3765 16.0853 86.4005 18.3626V15.1815H80.1467V33.7983H86.4366V26.9661C86.4366 23.062 88.2079 20.64 91.389 20.64C92.0397 20.64 92.5097 20.7123 92.7989 20.8569V14.8923Z" fill="#170F49"/>
<path d="M95.2206 33.7983H101.51V15.1815H95.2206V33.7983ZM94.9675 9.97607C94.9675 11.8558 96.4135 13.2295 98.3294 13.2295C100.245 13.2295 101.727 11.8558 101.727 9.97607C101.727 8.09632 100.245 6.72266 98.3294 6.72266C96.4135 6.72266 94.9675 8.09632 94.9675 9.97607Z" fill="#170F49"/>
<path d="M110.143 24.5803L103.745 33.7983H110.721L113.758 28.882L116.794 33.7983H123.771L117.373 24.5803L123.916 15.1815H116.758L113.758 20.3508L110.758 15.1815H103.6L110.143 24.5803Z" fill="#170F49"/>
<path d="M131.162 18.8326H133.548V26.2793C133.548 30.6172 136.006 33.003 140.055 33.003C141.898 33.003 143.308 32.6054 144.284 32.1354V26.8215C143.525 27.3638 142.621 27.5083 141.862 27.5083C140.705 27.5083 139.838 26.8215 139.838 25.231V18.8326H143.778V13.9525H139.838V8.92775H133.729V13.9525H131.162V18.8326Z" fill="#4A3AFF"/>
<path d="M163.621 24.761C163.802 24.1826 163.983 23.062 163.983 22.086C163.983 16.989 160.368 13.5187 155.054 13.5187C149.559 13.5187 145.366 17.7843 145.366 23.2789C145.366 28.7736 149.451 33.003 155.813 33.003C158.958 33.003 161.416 32.2077 163.874 30.0026L160.693 26.0262C159.79 26.8938 158.307 27.7614 156.283 27.7614C154.15 27.7614 152.126 26.8577 151.837 24.761H163.621ZM154.909 18.5072C156.536 18.5072 157.801 19.5194 157.91 21.11V21.1461H151.728C151.837 19.4471 153.283 18.5072 154.909 18.5072Z" fill="#4A3AFF"/>
<path d="M167.074 13.9525V32.5692H173.364V22.7728C173.364 20.4593 174.557 19.0133 176.329 19.0133C178.208 19.0133 179.221 20.1701 179.221 22.339V32.5692H185.51V22.7728C185.51 20.4593 186.776 19.0133 188.475 19.0133C190.354 19.0133 191.367 20.1701 191.367 22.339V32.5692H197.657V21.2184C197.657 16.4106 194.982 13.5187 190.463 13.5187C187.318 13.5187 185.619 14.9285 184.354 16.5552C183.089 14.567 181.064 13.5187 178.317 13.5187C176.112 13.5187 174.34 14.2778 173.075 16.1576V13.9525H167.074Z" fill="#4A3AFF"/>
<path d="M201.917 39.799H208.207V30.7618C209.4 32.4969 211.497 33.003 213.268 33.003C218.474 33.003 222.016 28.7736 222.016 23.2428C222.016 17.4589 217.968 13.5187 213.34 13.5187C211.822 13.5187 209.256 14.0609 207.701 16.4829V13.9525H201.917V39.799ZM208.063 23.3151C208.063 20.6762 209.726 19.0133 211.931 19.0133C213.991 19.0133 215.69 20.7123 215.69 23.3151C215.69 25.9178 213.991 27.5083 211.931 27.5083C209.726 27.5083 208.063 25.9178 208.063 23.3151Z" fill="#4A3AFF"/>
<path d="M224.964 27.0023C224.964 30.9064 227.206 33.003 231.11 33.003C232.375 33.003 233.351 32.7861 234.038 32.4608V27.3999C233.568 27.5806 233.134 27.6168 232.809 27.6168C231.363 27.6168 231.254 26.7131 231.254 25.8455V6.72266H224.964V27.0023Z" fill="#4A3AFF"/>
<path d="M241.814 33.003C244.272 33.003 245.899 31.9185 246.622 30.5087V32.5692H252.442V20.9292C252.442 16.3021 249.261 13.5187 243.875 13.5187C240.224 13.5187 237.223 15.1092 235.633 17.1336L238.922 21.0738C239.898 19.9532 241.417 18.8687 243.549 18.8687C245.104 18.8687 246.441 19.411 246.441 20.9654V21.0015L241.634 21.9414C237.729 22.7728 235.561 24.6526 235.561 27.3999C235.561 30.6895 238.199 33.003 241.814 33.003ZM246.441 24.7972V25.0864C246.441 27.1469 245.285 28.4844 243.296 28.4844C242.176 28.4844 241.561 27.906 241.561 27.0023C241.561 26.0985 242.284 25.6286 243.405 25.3756L246.441 24.7972Z" fill="#4A3AFF"/>
<path d="M254.683 18.8326H257.069V26.2793C257.069 30.6172 259.527 33.003 263.576 33.003C265.419 33.003 266.829 32.6054 267.805 32.1354V26.8215C267.046 27.3638 266.142 27.5083 265.383 27.5083C264.226 27.5083 263.359 26.8215 263.359 25.231V18.8326H267.299V13.9525H263.359V8.92775H257.25V13.9525H254.683V18.8326Z" fill="#4A3AFF"/>
<path d="M287.142 24.761C287.323 24.1826 287.504 23.062 287.504 22.086C287.504 16.989 283.889 13.5187 278.575 13.5187C273.08 13.5187 268.887 17.7843 268.887 23.2789C268.887 28.7736 272.972 33.003 279.334 33.003C282.479 33.003 284.937 32.2077 287.395 30.0026L284.214 26.0262C283.311 26.8938 281.828 27.7614 279.804 27.7614C277.671 27.7614 275.647 26.8577 275.358 24.761H287.142ZM278.43 18.5072C280.057 18.5072 281.322 19.5194 281.431 21.11V21.1461H275.249C275.358 19.4471 276.804 18.5072 278.43 18.5072Z" fill="#4A3AFF"/>
<path d="M297.03 33.003C301.657 33.003 304.766 30.4364 304.766 27.1107C304.766 23.4235 301.91 22.4475 298.982 21.2907C296.343 20.1701 295.223 19.9894 295.223 19.3025C295.223 18.6157 296.054 18.218 297.03 18.218C298.765 18.218 299.741 19.0495 300.356 20.0978L304.26 17.2782C303.103 15.0731 300.392 13.5187 297.211 13.5187C293.017 13.5187 289.511 15.543 289.511 19.2664C289.511 22.2667 291.571 23.7488 295.223 25.0502C297.789 25.9539 299.054 26.2793 299.054 27.2553C299.054 27.9421 298.367 28.3036 297.102 28.3036C295.223 28.3036 293.777 27.1469 292.909 25.6647L288.896 28.7374C290.451 31.4847 293.56 33.003 297.03 33.003Z" fill="#4A3AFF"/>
<path fill-rule="evenodd" clip-rule="evenodd" d="M34.8597 12.4118C38.1014 12.4118 40.7292 9.78399 40.7292 6.54235C40.7292 3.30072 38.1014 0.672852 34.8597 0.672852C31.6181 0.672852 28.9902 3.30072 28.9902 6.54235C28.9902 9.78399 31.6181 12.4118 34.8597 12.4118Z" fill="#8055FA"/>
<path fill-rule="evenodd" clip-rule="evenodd" d="M34.8597 26.4943C38.1014 26.4943 40.7292 23.8667 40.7292 20.6255C40.7292 17.3843 38.1014 14.7568 34.8597 14.7568C31.6181 14.7568 28.9902 17.3843 28.9902 20.6255C28.9902 23.8667 31.6181 26.4943 34.8597 26.4943Z" fill="#7550FB"/>
<path fill-rule="evenodd" clip-rule="evenodd" d="M34.8597 41.1033C38.1014 41.1033 40.7292 38.4754 40.7292 35.2338C40.7292 31.9921 38.1014 29.3643 34.8597 29.3643C31.6181 29.3643 28.9902 31.9921 28.9902 35.2338C28.9902 38.4754 31.6181 41.1033 34.8597 41.1033Z" fill="#6A4AFC"/>
<path d="M20.2515 26.4943C23.4927 26.4943 26.1202 23.8667 26.1202 20.6255C26.1202 17.3843 23.4927 14.7568 20.2515 14.7568C17.0103 14.7568 14.3828 17.3843 14.3828 20.6255C14.3828 23.8667 17.0103 26.4943 20.2515 26.4943Z" fill="#6045FD"/>
<path d="M20.2515 26.4943C23.4927 26.4943 26.1202 23.8667 26.1202 20.6255C26.1202 17.3843 23.4927 14.7568 20.2515 14.7568C17.0103 14.7568 14.3828 17.3843 14.3828 20.6255C14.3828 23.8667 17.0103 26.4943 20.2515 26.4943Z" stroke="#A0A3BD"/>
<path fill-rule="evenodd" clip-rule="evenodd" d="M20.2515 41.1023C23.4927 41.1023 26.1202 38.4744 26.1202 35.2328C26.1202 31.9911 23.4927 29.3633 20.2515 29.3633C17.0103 29.3633 14.3828 31.9911 14.3828 35.2328C14.3828 38.4744 17.0103 41.1023 20.2515 41.1023Z" fill="#553FFE"/>
<path fill-rule="evenodd" clip-rule="evenodd" d="M6.16833 41.1033C9.40996 41.1033 12.0378 38.4754 12.0378 35.2338C12.0378 31.9921 9.40996 29.3643 6.16833 29.3643C2.92669 29.3643 0.298828 31.9921 0.298828 35.2338C0.298828 38.4754 2.92669 41.1033 6.16833 41.1033Z" fill="#4A3AFF"/>
</svg>
